<mxfile host="app.diagrams.net" modified="2023-12-20T01:41:55.706Z" agent="Mozilla/5.0 (Windows NT 10.0; Win64; x64) AppleWebKit/537.36 (KHTML, like Gecko) Chrome/120.0.0.0 Safari/537.36" etag="MT5roOzwPE4hjcoPx9Te" version="22.1.11" type="github">
  <diagram id="R2lEEEUBdFMjLlhIrx00" name="Page-1">
    <mxGraphModel dx="972" dy="574" grid="1" gridSize="10" guides="1" tooltips="1" connect="1" arrows="1" fold="1" page="1" pageScale="1" pageWidth="850" pageHeight="1100" math="0" shadow="0" extFonts="Permanent Marker^https://fonts.googleapis.com/css?family=Permanent+Marker">
      <root>
        <mxCell id="0" />
        <mxCell id="1" parent="0" />
        <mxCell id="AX1ZhCoacdU_LRVz7sSP-18" style="edgeStyle=orthogonalEdgeStyle;rounded=0;orthogonalLoop=1;jettySize=auto;html=1;entryX=0.5;entryY=1;entryDx=0;entryDy=0;" edge="1" parent="1" source="AX1ZhCoacdU_LRVz7sSP-3" target="AX1ZhCoacdU_LRVz7sSP-17">
          <mxGeometry relative="1" as="geometry" />
        </mxCell>
        <mxCell id="AX1ZhCoacdU_LRVz7sSP-21" style="edgeStyle=orthogonalEdgeStyle;rounded=0;orthogonalLoop=1;jettySize=auto;html=1;" edge="1" parent="1" source="AX1ZhCoacdU_LRVz7sSP-3" target="AX1ZhCoacdU_LRVz7sSP-19">
          <mxGeometry relative="1" as="geometry" />
        </mxCell>
        <mxCell id="AX1ZhCoacdU_LRVz7sSP-3" value="Video" style="rounded=0;whiteSpace=wrap;html=1;" vertex="1" parent="1">
          <mxGeometry x="250" y="470" width="120" height="60" as="geometry" />
        </mxCell>
        <mxCell id="AX1ZhCoacdU_LRVz7sSP-34" style="edgeStyle=orthogonalEdgeStyle;rounded=0;orthogonalLoop=1;jettySize=auto;html=1;entryX=1;entryY=0.5;entryDx=0;entryDy=0;" edge="1" parent="1" source="AX1ZhCoacdU_LRVz7sSP-5" target="AX1ZhCoacdU_LRVz7sSP-33">
          <mxGeometry relative="1" as="geometry" />
        </mxCell>
        <mxCell id="AX1ZhCoacdU_LRVz7sSP-5" value="Artists" style="rounded=0;whiteSpace=wrap;html=1;" vertex="1" parent="1">
          <mxGeometry x="480" y="520" width="120" height="60" as="geometry" />
        </mxCell>
        <mxCell id="AX1ZhCoacdU_LRVz7sSP-6" value="Clients" style="rounded=0;whiteSpace=wrap;html=1;" vertex="1" parent="1">
          <mxGeometry x="480" y="630" width="120" height="60" as="geometry" />
        </mxCell>
        <mxCell id="AX1ZhCoacdU_LRVz7sSP-9" style="edgeStyle=orthogonalEdgeStyle;rounded=0;orthogonalLoop=1;jettySize=auto;html=1;entryX=0.5;entryY=0;entryDx=0;entryDy=0;strokeColor=default;endArrow=none;endFill=0;startArrow=classic;startFill=1;" edge="1" parent="1" source="AX1ZhCoacdU_LRVz7sSP-7" target="AX1ZhCoacdU_LRVz7sSP-8">
          <mxGeometry relative="1" as="geometry" />
        </mxCell>
        <mxCell id="AX1ZhCoacdU_LRVz7sSP-20" style="edgeStyle=orthogonalEdgeStyle;rounded=0;orthogonalLoop=1;jettySize=auto;html=1;entryX=0.5;entryY=1;entryDx=0;entryDy=0;" edge="1" parent="1" source="AX1ZhCoacdU_LRVz7sSP-7" target="AX1ZhCoacdU_LRVz7sSP-19">
          <mxGeometry relative="1" as="geometry" />
        </mxCell>
        <mxCell id="AX1ZhCoacdU_LRVz7sSP-7" value="Work Files" style="rounded=0;whiteSpace=wrap;html=1;" vertex="1" parent="1">
          <mxGeometry x="50" y="670" width="120" height="60" as="geometry" />
        </mxCell>
        <mxCell id="AX1ZhCoacdU_LRVz7sSP-8" value="Version" style="ellipse;whiteSpace=wrap;html=1;" vertex="1" parent="1">
          <mxGeometry x="80" y="780" width="60" height="40" as="geometry" />
        </mxCell>
        <mxCell id="AX1ZhCoacdU_LRVz7sSP-38" style="edgeStyle=orthogonalEdgeStyle;rounded=0;orthogonalLoop=1;jettySize=auto;html=1;exitX=1;exitY=0.5;exitDx=0;exitDy=0;" edge="1" parent="1" source="AX1ZhCoacdU_LRVz7sSP-10" target="AX1ZhCoacdU_LRVz7sSP-3">
          <mxGeometry relative="1" as="geometry" />
        </mxCell>
        <mxCell id="AX1ZhCoacdU_LRVz7sSP-10" value="File Path" style="ellipse;whiteSpace=wrap;html=1;" vertex="1" parent="1">
          <mxGeometry x="220" y="390" width="70" height="40" as="geometry" />
        </mxCell>
        <mxCell id="AX1ZhCoacdU_LRVz7sSP-39" style="edgeStyle=orthogonalEdgeStyle;rounded=0;orthogonalLoop=1;jettySize=auto;html=1;exitX=1;exitY=0.5;exitDx=0;exitDy=0;" edge="1" parent="1" source="AX1ZhCoacdU_LRVz7sSP-14" target="AX1ZhCoacdU_LRVz7sSP-3">
          <mxGeometry relative="1" as="geometry" />
        </mxCell>
        <mxCell id="AX1ZhCoacdU_LRVz7sSP-14" value="Description" style="ellipse;whiteSpace=wrap;html=1;" vertex="1" parent="1">
          <mxGeometry x="220" y="340" width="70" height="40" as="geometry" />
        </mxCell>
        <mxCell id="AX1ZhCoacdU_LRVz7sSP-17" value="Tags" style="rounded=0;whiteSpace=wrap;html=1;" vertex="1" parent="1">
          <mxGeometry x="400" y="280" width="120" height="60" as="geometry" />
        </mxCell>
        <mxCell id="AX1ZhCoacdU_LRVz7sSP-19" value="Projects" style="rhombus;whiteSpace=wrap;html=1;" vertex="1" parent="1">
          <mxGeometry x="280" y="580" width="60" height="60" as="geometry" />
        </mxCell>
        <mxCell id="AX1ZhCoacdU_LRVz7sSP-31" value="n | n" style="text;strokeColor=none;align=center;fillColor=none;html=1;verticalAlign=middle;whiteSpace=wrap;rounded=0;" vertex="1" parent="1">
          <mxGeometry x="220" y="595" width="60" height="30" as="geometry" />
        </mxCell>
        <mxCell id="AX1ZhCoacdU_LRVz7sSP-35" style="edgeStyle=orthogonalEdgeStyle;rounded=0;orthogonalLoop=1;jettySize=auto;html=1;entryX=1;entryY=0.75;entryDx=0;entryDy=0;" edge="1" parent="1" source="AX1ZhCoacdU_LRVz7sSP-33" target="AX1ZhCoacdU_LRVz7sSP-7">
          <mxGeometry relative="1" as="geometry" />
        </mxCell>
        <mxCell id="AX1ZhCoacdU_LRVz7sSP-33" value="Tasks" style="rhombus;whiteSpace=wrap;html=1;" vertex="1" parent="1">
          <mxGeometry x="280" y="710" width="60" height="60" as="geometry" />
        </mxCell>
        <mxCell id="AX1ZhCoacdU_LRVz7sSP-37" value="1 | n" style="text;strokeColor=none;align=center;fillColor=none;html=1;verticalAlign=middle;whiteSpace=wrap;rounded=0;" vertex="1" parent="1">
          <mxGeometry x="350" y="710" width="60" height="30" as="geometry" />
        </mxCell>
      </root>
    </mxGraphModel>
  </diagram>
</mxfile>
